<svg xmlns="http://www.w3.org/2000/svg" viewBox="0 0 512 512" role="img" aria-label="Umbrella Parade Voice Casting Studio">
  <rect width="512" height="512" fill="#1f2937"/>
  <circle cx="256" cy="256" r="202" fill="none" stroke="#facc15" stroke-width="6"/>
  <path d="M112 209a144 85 0 0 1 288 0" fill="none" stroke="#f8fafc" stroke-width="16" stroke-linecap="square"/>
  <path d="M112 244a48 38 0 0 1 96 0" fill="none" stroke="#f8fafc" stroke-width="16"/>
  <path d="M208 244a48 38 0 0 1 96 0" fill="none" stroke="#f8fafc" stroke-width="16"/>
  <path d="M304 244a48 38 0 0 1 96 0" fill="none" stroke="#f8fafc" stroke-width="16"/>
  <path d="M256 124v194" stroke="#f8fafc" stroke-width="16" stroke-linecap="round"/>
  <path d="M256 321c0 28 18 36 36 20" fill="none" stroke="#f8fafc" stroke-width="16" stroke-linecap="round"/>
  <circle cx="117" cy="391" r="21" fill="#16a3a3"/>
  <circle cx="393" cy="117" r="19" fill="#ef7460"/>
  <path d="M190 378c22 28 50 42 83 42 32 0 59-14 82-42" fill="none" stroke="#16a3a3" stroke-width="14" stroke-linecap="round"/>
  <text x="256" y="468" text-anchor="middle" font-family="Arial, sans-serif" font-size="62" font-weight="700" fill="#f8fafc">VCS</text>
</svg>
